<svg xmlns="http://www.w3.org/2000/svg" width="56" height="56" fill="none"><path fill="#1735DD" d="M10.692 9.424a.875.875 0 1 0 0 1.75.875.875 0 0 0 0-1.75Zm3.212 0a.875.875 0 1 0 0 1.75.875.875 0 0 0 0-1.75Zm3.211 0a.875.875 0 1 0 0 1.75.875.875 0 0 0 0-1.75Z"/><path fill="#1735DD" d="M39.541 50.514h3.264a1.942 1.942 0 0 0 1.934-1.934v-1.697h2.266a4.629 4.629 0 0 0 4.62-4.62V10.115a4.62 4.62 0 0 0-4.62-4.62H8.995a4.62 4.62 0 0 0-4.62 4.62v32.148a4.629 4.629 0 0 0 4.62 4.62h2.266v1.697a1.943 1.943 0 0 0 1.934 1.934h3.264a1.926 1.926 0 0 0 1.78-1.202c.093-.232.14-.481.136-.732v-1.697h1.654v1.697a1.943 1.943 0 0 0 1.925 1.934h3.272a1.943 1.943 0 0 0 1.934-1.934v-1.697h1.645v1.697a1.942 1.942 0 0 0 1.934 1.934h3.272a1.942 1.942 0 0 0 1.788-1.2 1.87 1.87 0 0 0 .137-.734v-1.697h1.689v1.697a1.942 1.942 0 0 0 1.916 1.934Zm3.448-1.934a.183.183 0 0 1-.184.184h-3.264a.184.184 0 0 1-.183-.184V27.878a.184.184 0 0 1 .183-.184h3.264a.183.183 0 0 1 .184.184V48.58Zm-26.364 0a.148.148 0 0 1-.052.123.184.184 0 0 1-.132.06h-3.246a.184.184 0 0 1-.184-.183V42a.184.184 0 0 1 .184-.184h3.264a.183.183 0 0 1 .166.184v6.58Zm8.75 0a.184.184 0 0 1-.184.184h-3.22a.184.184 0 0 1-.175-.184V34.501a.186.186 0 0 1 .048-.132.182.182 0 0 1 .127-.06h3.273a.192.192 0 0 1 .183.192l-.052 14.08Zm8.75 0a.184.184 0 0 1-.044.123.183.183 0 0 1-.131.06h-3.194a.184.184 0 0 1-.183-.183v-9.739a.184.184 0 0 1 .183-.183h3.273a.176.176 0 0 1 .175.183l-.079 9.74Zm1.75-3.447V38.84a1.934 1.934 0 0 0-1.925-1.933h-3.194a1.943 1.943 0 0 0-1.933 1.933v6.292h-1.646V34.5a1.932 1.932 0 0 0-1.933-1.942H21.97a1.934 1.934 0 0 0-1.925 1.942v10.632h-1.671V42a1.934 1.934 0 0 0-1.934-1.925h-3.246A1.934 1.934 0 0 0 11.261 42v3.159H8.995a2.881 2.881 0 0 1-2.87-2.896V10.115a2.87 2.87 0 0 1 2.87-2.87h38.01a2.87 2.87 0 0 1 2.87 2.87v32.148a2.879 2.879 0 0 1-2.87 2.87h-2.266V27.878a1.934 1.934 0 0 0-1.934-1.934h-3.264a1.933 1.933 0 0 0-1.916 1.934v17.255h-1.75Z"/><path fill="#1735DD" d="M41.178 22.444a3.045 3.045 0 0 0 3.027-3.028 3.036 3.036 0 0 0-3.027-3.027 3.027 3.027 0 0 0-3.028 3.027c.015.6.214 1.18.569 1.663l-5.25 6.51a3.106 3.106 0 0 0-3.255.647.407.407 0 0 1-.052.079l-3.658-1.811c.045-.152.078-.307.096-.464a3.027 3.027 0 1 0-6.055 0c.002.416.091.828.263 1.207l-4.419 3.763a2.975 2.975 0 0 0-1.601-.516 3.027 3.027 0 0 0-3.019 3.018 2.94 2.94 0 0 0 .875 2.144 3.027 3.027 0 0 0 5.162-2.135 3.097 3.097 0 0 0-.253-1.199l4.418-3.762c.47.325 1.023.507 1.593.525a3.02 3.02 0 0 0 2.196-.971l3.658 1.802a3.249 3.249 0 0 0-.096.473 3.026 3.026 0 1 0 5.486-1.663l5.197-6.492c.373.146.772.217 1.173.21ZM16.1 33.512a1.285 1.285 0 0 1-.367.875 1.312 1.312 0 0 1-1.812 0 1.25 1.25 0 0 1-.273-1.363 1.271 1.271 0 0 1 1.175-.79c.327.01.64.14.875.368.23.235.36.548.367.875l.035.035Zm7.525-6.195a1.278 1.278 0 0 1-.875-.376 1.246 1.246 0 0 1-.376-.875 1.277 1.277 0 0 1 2.555 0 1.269 1.269 0 0 1-1.304 1.251Zm17.553-9.178c.328.006.64.138.875.367.232.233.366.546.376.875-.01.329-.144.642-.376.875a1.312 1.312 0 0 1-1.811 0 1.278 1.278 0 0 1 .875-2.179l.06.062Zm-7.508 12.25a1.278 1.278 0 1 1-2.554-.06 1.278 1.278 0 0 1 2.554.06ZM22.225 11.174h21.998a.875.875 0 1 0 0-1.75H22.225a.875.875 0 1 0 0 1.75Z"/></svg>